# xmcd
#
# Track frame offsets: 
#        150
#        17958
#        35979
#        55378
#        72990
#        95543
#        114020
#        131670
#        153661
#        176302
#
# Disc length: 2603 seconds
#
# Revision: 0
# Processed by: cddbd v1.5.2PL0 Copyright (c) Steve Scherf et al.
# Submitted via: ExactAudioCopy v1.1
#
DISCID=880a290a
DTITLE=Vertical Worship - Vertical Worship
DYEAR=2017
DGENRE=Worship
TTITLE0=Open Up The Heavens
TTITLE1=Do What You Want To
TTITLE2=Lamb Of God
TTITLE3=Exalted Over All
TTITLE4=The Rock Won't Move
TTITLE5=Found In You
TTITLE6=1,000 Tongues
TTITLE7=Spirit Of The Living God
TTITLE8=God You Are My God
TTITLE9=I'm Going Free (Jailbreak)
EXTD=
EXTT0=
EXTT1=
EXTT2=
EXTT3=
EXTT4=
EXTT5=
EXTT6=
EXTT7=
EXTT8=
EXTT9=
PLAYORDER=
